<svg width="50" height="28" viewBox="0 0 50 28" fill="none" xmlns="http://www.w3.org/2000/svg">
    <path
        d="M23.4424 27.3387L0.594204 3.57788C0.212779 3.18142 0 2.65469 0 2.10695C0 1.5592 0.212779 1.03248 0.594204 0.63602L0.620022 0.610436C0.804929 0.417573 1.0275 0.264002 1.2742 0.15906C1.52089 0.0541174 1.78655 -2.23903e-07 2.05502 -2.23903e-07C2.32349 -2.23903e-07 2.58916 0.0541174 2.83585 0.15906C3.08255 0.264002 3.30512 0.417573 3.49003 0.610436L25.0043 22.9856L46.51 0.610436C46.6949 0.417573 46.9174 0.264002 47.1641 0.15906C47.4108 0.0541174 47.6765 -2.23903e-07 47.945 -2.23903e-07C48.2134 -2.23903e-07 48.4791 0.0541174 48.7258 0.15906C48.9725 0.264002 49.1951 0.417573 49.38 0.610436L49.4058 0.63602C49.7872 1.03248 50 1.5592 50 2.10695C50 2.65469 49.7872 3.18142 49.4058 3.57788L26.5576 27.3387C26.3567 27.5477 26.115 27.714 25.8473 27.8277C25.5795 27.9414 25.2913 28 25 28C24.7087 28 24.4205 27.9414 24.1527 27.8277C23.885 27.714 23.6433 27.5477 23.4424 27.3387Z"
        fill="#EEEEEE" />
</svg>
    