<svg width="50" height="28" viewBox="0 0 50 28" fill="none" xmlns="http://www.w3.org/2000/svg">
    <path
        d="M23.4424 0.66128L0.594204 24.4221C0.212779 24.8186 0 25.3453 0 25.8931C0 26.4408 0.212779 26.9675 0.594204 27.364L0.620022 27.3896C0.804929 27.5824 1.0275 27.736 1.2742 27.8409C1.52089 27.9459 1.78655 28 2.05502 28C2.32349 28 2.58916 27.9459 2.83585 27.8409C3.08255 27.736 3.30512 27.5824 3.49003 27.3896L25.0043 5.01438L46.51 27.3896C46.6949 27.5824 46.9174 27.736 47.1641 27.8409C47.4108 27.9459 47.6765 28 47.945 28C48.2134 28 48.4791 27.9459 48.7258 27.8409C48.9725 27.736 49.1951 27.5824 49.38 27.3896L49.4058 27.364C49.7872 26.9675 50 26.4408 50 25.8931C50 25.3453 49.7872 24.8186 49.4058 24.4221L26.5576 0.66128C26.3567 0.452313 26.115 0.285953 25.8473 0.172283C25.5795 0.0586128 25.2913 0 25 0C24.7087 0 24.4205 0.0586128 24.1527 0.172283C23.885 0.285953 23.6433 0.452313 23.4424 0.66128Z"
        fill="#EEEEEE" />
</svg>
    